# xmcd
# 
# Track frame offsets:
#     150
#     24296
#     49450
#     58658
#     66451
#     82724
#     99288
#     108491
#     125609
#     149396
#     165437
#     178616
#     194641
#     212897
#     239183
#     263165
#     281376
#     298177
# 
# Disc length: 4254
# 
# Revision: 7
# Processed by: cddbd v1.5.2PL0 Copyright (c) Steve Scherf et al.
# Submitted via: fre:ac v1.1beta1pre5
# 
DISCID=16109c12
DTITLE=Irmgard Keun - Das kunstseidene Mädchen - CD2
DYEAR=2005
DGENRE=Hörbuch
TTITLE0=17
TTITLE1=18
TTITLE2=19
TTITLE3=20
TTITLE4=21
TTITLE5=22
TTITLE6=23
TTITLE7=24
TTITLE8=25
TTITLE9=26
TTITLE10=27
TTITLE11=28
TTITLE12=29
TTITLE13=30
TTITLE14=31
TTITLE15=32
TTITLE16=33
TTITLE17=34
EXTD=
EXTT0=
EXTT1=
EXTT2=
EXTT3=
EXTT4=
EXTT5=
EXTT6=
EXTT7=
EXTT8=
EXTT9=
EXTT10=
EXTT11=
EXTT12=
EXTT13=
EXTT14=
EXTT15=
EXTT16=
EXTT17=
PLAYORDER=
